<svg width="60" height="60" viewBox="0 0 60 60" fill="none" xmlns="http://www.w3.org/2000/svg">
    <g clip-path="url(#clip0_40_827)">
        <path d="M39.5083 26.5855C39.2083 26.5855 38.9084 26.471 38.6796 26.2422C38.222 25.7845 38.222 25.0426 38.6797 24.585L39.2115 24.0532C39.6692 23.5954 40.4113 23.5957 40.8688 24.0533C41.3264 24.511 41.3264 25.2529 40.8687 25.7105L40.3369 26.2423C40.108 26.4711 39.808 26.5855 39.5083 26.5855Z" fill="#084DBC"/>
        <path d="M19.9604 46.1335C19.6605 46.1335 19.3607 46.0191 19.1318 45.7902C18.6742 45.3326 18.6742 44.5906 19.1318 44.1328L19.6636 43.601C20.1213 43.1434 20.8631 43.1434 21.321 43.601C21.7786 44.0586 21.7786 44.8007 21.321 45.2584L20.7892 45.7902C20.5602 46.0191 20.2604 46.1335 19.9604 46.1335Z" fill="#084DBC"/>
        <path d="M40.0401 46.1335C39.7401 46.1335 39.4403 46.0191 39.2114 45.7902L38.6796 45.2584C38.222 44.8008 38.222 44.0588 38.6796 43.601C39.1374 43.1434 39.8792 43.1434 40.337 43.601L40.8688 44.1328C41.3264 44.5904 41.3264 45.3325 40.8688 45.7902C40.6398 46.0191 40.3399 46.1335 40.0401 46.1335Z" fill="#084DBC"/>
        <path d="M20.4922 26.5855C20.1922 26.5855 19.8924 26.4712 19.6637 26.2423L19.1319 25.7105C18.6742 25.2529 18.6742 24.511 19.1318 24.0532C19.5893 23.5956 20.3314 23.5955 20.789 24.0531L21.3208 24.5849C21.7786 25.0425 21.7786 25.7844 21.3209 26.2422C21.0921 26.471 20.7922 26.5855 20.4922 26.5855Z" fill="#084DBC"/>
        <path d="M44.1985 36.0938H43.4465C42.7994 36.0938 42.2747 35.5691 42.2747 34.9219C42.2747 34.2746 42.7994 33.75 43.4465 33.75H44.1985C44.8456 33.75 45.3704 34.2746 45.3704 34.9219C45.3704 35.5691 44.8458 36.0938 44.1985 36.0938Z" fill="#084DBC"/>
        <path d="M16.5541 36.0938H15.802C15.1549 36.0938 14.6301 35.5691 14.6301 34.9219C14.6301 34.2746 15.1549 33.75 15.802 33.75H16.5541C17.2012 33.75 17.726 34.2746 17.726 34.9219C17.726 35.5691 17.2012 36.0938 16.5541 36.0938Z" fill="#084DBC"/>
        <path d="M30.0002 50.292C29.3531 50.292 28.8284 49.7674 28.8284 49.1202V48.3682C28.8284 47.7209 29.3531 47.1963 30.0002 47.1963C30.6474 47.1963 31.1721 47.7209 31.1721 48.3682V49.1202C31.1721 49.7674 30.6474 50.292 30.0002 50.292Z" fill="#084DBC"/>
        <path d="M30.0002 22.647C29.3531 22.647 28.8284 22.1224 28.8284 21.4751V20.7231C28.8284 20.0759 29.3531 19.5513 30.0002 19.5513C30.6474 19.5513 31.1721 20.0759 31.1721 20.7231V21.4751C31.1721 22.1224 30.6474 22.647 30.0002 22.647Z" fill="#084DBC"/>
        <path d="M31.172 29.9426V26.4844C31.172 25.8371 30.6473 25.3125 30.0001 25.3125C29.353 25.3125 28.8283 25.8371 28.8283 26.4844V29.9842C26.6724 30.5439 25.0759 32.5065 25.0759 34.835C25.0759 37.5981 27.3238 39.846 30.0869 39.846C32.8499 39.846 35.0979 37.5981 35.0979 34.835C35.0978 32.4446 33.4151 30.4398 31.172 29.9426ZM30.0867 37.5023C28.616 37.5023 27.4196 36.3059 27.4196 34.8352C27.4196 33.3645 28.616 32.168 30.0867 32.168C31.5576 32.168 32.7541 33.3645 32.7541 34.8352C32.7541 36.3059 31.5576 37.5023 30.0867 37.5023Z" fill="#084DBC"/>
        <path d="M53.6636 38.9934C53.0312 38.8508 52.405 39.2474 52.2626 39.8788C49.9391 50.1797 40.5766 57.6562 30.0003 57.6562C17.4166 57.6562 7.17895 47.4186 7.17895 34.8349C7.17895 22.2512 17.4166 12.0136 30.0003 12.0136C40.738 12.0136 49.8909 19.3164 52.2584 29.7727C52.4012 30.4038 53.0288 30.8 53.6601 30.6568C54.2914 30.514 54.6872 29.8863 54.5443 29.2552C53.6876 25.4718 51.9427 21.9295 49.4978 18.9301L50.9566 17.4713C51.9793 16.4484 51.9793 14.7845 50.9566 13.7617L48.2028 11.0079C47.7073 10.5124 47.0486 10.2395 46.3479 10.2395C45.6473 10.2395 44.9886 10.5123 44.4932 11.0078L42.5044 12.9966C40.6541 11.9391 38.6752 11.1204 36.622 10.5598V8.4375H36.9536C38.3105 8.4375 39.4145 7.33359 39.4145 5.97656V2.46094C39.4145 1.10391 38.3105 0 36.9536 0H23.0468C21.6899 0 20.5859 1.10391 20.5859 2.46094V5.97656C20.5859 7.33359 21.6899 8.4375 23.0468 8.4375H23.3785V10.5454C21.3168 11.1039 19.3397 11.9238 17.4878 12.9884L15.5074 11.0078C15.0119 10.5123 14.3532 10.2395 13.6526 10.2395C12.952 10.2395 12.2931 10.5124 11.7979 11.0078L9.04399 13.7617C8.0213 14.7845 8.0213 16.4484 9.04399 17.4711L10.4986 18.9258C6.82985 23.4061 4.83521 28.9672 4.83521 34.8349C4.83521 41.5568 7.45282 47.8763 12.2059 52.6294C16.9591 57.3825 23.2784 60 30.0003 60C35.7453 60 41.3641 58.0132 45.8213 54.4058C50.2132 50.8512 53.3128 45.8752 54.5489 40.3944C54.6912 39.763 54.2949 39.1357 53.6636 38.9934ZM46.1506 12.6652C46.2182 12.5975 46.2952 12.5834 46.348 12.5834C46.4009 12.5834 46.4778 12.5975 46.5455 12.6652L49.2994 15.4191C49.4084 15.5279 49.4084 15.7051 49.2994 15.814L47.9322 17.1813C47.2648 16.5023 46.5577 15.8596 45.8134 15.2577C45.3953 14.9196 44.9671 14.5957 44.5294 14.2864L46.1506 12.6652ZM22.9297 5.97656V2.46094C22.9297 2.39637 22.9822 2.34375 23.0468 2.34375H36.9537C37.0184 2.34375 37.0709 2.39637 37.0709 2.46094V5.97656C37.0709 6.04113 37.0184 6.09375 36.9537 6.09375H23.0468C22.9822 6.09375 22.9297 6.04113 22.9297 5.97656ZM25.7222 8.4375H34.2783V10.0383C32.871 9.79465 31.4397 9.66984 30.0003 9.66984C28.5517 9.66984 27.1218 9.79148 25.7222 10.0298V8.4375ZM10.7011 15.814C10.5922 15.7051 10.5922 15.5279 10.7011 15.4191L13.455 12.665C13.5227 12.5975 13.5997 12.5834 13.6525 12.5834C13.7052 12.5834 13.7822 12.5975 13.85 12.6652L15.4676 14.2828C14.316 15.1008 13.225 16.0215 12.2059 17.0406C12.1595 17.087 12.1135 17.1336 12.0674 17.1803L10.7011 15.814Z" fill="#084DBC"/>
        <path d="M30.0003 54.8438C18.9673 54.8438 9.99146 45.8679 9.99146 34.835C9.99146 23.8021 18.9674 14.8262 30.0003 14.8262C41.0331 14.8262 50.0091 23.802 50.0091 34.835C50.0091 45.868 41.0331 54.8438 30.0003 54.8438ZM30.0003 17.1699C20.2598 17.1699 12.3352 25.0945 12.3352 34.835C12.3352 44.5756 20.2598 52.5001 30.0003 52.5001C39.7408 52.5001 47.6654 44.5755 47.6654 34.835C47.6654 25.0945 39.7408 17.1699 30.0003 17.1699Z" fill="#084DBC"/>
        <path d="M53.9932 36.0071C53.503 36.0071 53.0562 35.6895 52.8911 35.2294C52.7257 34.769 52.8721 34.2405 53.2498 33.9295C53.6327 33.6143 54.1906 33.5777 54.6116 33.8396C55.0206 34.094 55.2378 34.5907 55.1428 35.0637C55.0343 35.6041 54.5454 36.0071 53.9932 36.0071Z" fill="#084DBC"/>
    </g>
    <defs>
        <clipPath id="clip0_40_827">
            <rect width="60" height="60" fill="white"/>
        </clipPath>
    </defs>
</svg>
