<svg width="60" height="60" viewBox="0 0 60 60" fill="none" xmlns="http://www.w3.org/2000/svg">
    <g clip-path="url(#clip0_40_825)">
        <path d="M54.1349 46.6525C55.3201 45.0229 55.9625 43.0616 55.9709 41.0465C55.9837 40.7816 55.8907 40.5224 55.7123 40.326C55.534 40.1297 55.2849 40.0122 55.0199 39.9995C54.4716 39.9822 54.0083 40.403 53.9729 40.9505C53.9805 42.5475 53.4885 44.107 52.5659 45.4105C50.6149 47.8745 46.9129 47.9995 46.1899 47.9995C45.6377 47.9995 45.1899 48.4473 45.1899 48.9995C45.1899 49.5518 45.6377 49.9995 46.1899 49.9995C47.0739 49.9995 51.6109 49.8385 54.1349 46.6525Z" fill="#084DBC"/>
        <path d="M36 39H38C40.76 38.9967 42.9967 36.76 43 34C43 33.4477 42.5523 33 42 33C41.4477 33 41 33.4477 41 34C41 35.6568 39.6569 37 38 37H36C34.3431 37 33 35.6568 33 34H36C36.5523 34 37 33.5523 37 33C37 32.4477 36.5523 32 36 32H33V30H36C36.5523 30 37 29.5523 37 29C37 28.4477 36.5523 28 36 28H33C33 26.3431 34.3431 25 36 25H38C39.6569 25 41 26.3431 41 28C41 28.5523 41.4477 29 42 29C42.5523 29 43 28.5523 43 28C42.9967 25.2399 40.76 23.0033 38 23H36C33.2399 23.0033 31.0033 25.2399 31 28H30C29.4477 28 29 28.4477 29 29C29 29.5523 29.4477 30 30 30H31V32H30C29.4477 32 29 32.4477 29 33C29 33.5523 29.4477 34 30 34H31C31.0033 36.76 33.2399 38.9967 36 39Z" fill="#084DBC"/>
        <path d="M59.164 33.7708C56.7 23.2998 51.222 17.2328 47.266 14.0638C52.227 14.4378 53.824 16.5018 53.871 16.5638C54.1843 17.011 54.7984 17.1242 55.2506 16.8181C55.7028 16.512 55.8258 15.8998 55.527 15.4428C55.455 15.3348 54.066 13.3508 50.027 12.4428C51.0598 11.5938 51.6707 10.3364 51.7 8.99977C51.5663 6.78371 50.0236 4.90454 47.876 4.34177C47.964 3.61942 48.0088 2.89246 48.01 2.16477C48.0089 1.49437 47.672 0.869097 47.1127 0.499456C46.5535 0.129815 45.8462 0.0649768 45.229 0.326769C44.7241 0.555345 44.2552 0.856162 43.837 1.21977C43.3462 1.72409 42.6707 2.00588 41.967 1.99977C41.2644 2.00471 40.5902 1.72304 40.1 1.21977C38.3376 -0.407892 35.6203 -0.407892 33.858 1.21977C33.3672 1.72519 32.6905 2.00713 31.986 1.99977C31.2836 2.00561 30.6093 1.72377 30.12 1.21977C29.7029 0.856943 29.2353 0.556487 28.732 0.327769C28.1152 0.0677314 27.4093 0.133455 26.8511 0.502877C26.293 0.872298 25.9566 1.49644 25.955 2.16577C25.955 4.65377 26.447 9.09177 29.562 12.0718C27.9249 13.0672 26.396 14.2305 25 15.5428V7.99977C25 5.71977 21.775 3.99977 17.5 3.99977C13.225 3.99977 10 5.71977 10 7.99977V18.0748C6.493 18.4248 4 19.9998 4 21.9998V47.4348C1.584 48.0838 0 49.3997 0 50.9997V55.9997C0 58.2797 3.225 59.9997 7.5 59.9997C11.323 59.9997 14.3 58.6227 14.887 56.6997C16.6132 57.6137 18.5478 58.0618 20.5 57.9997C24.775 57.9997 28 56.2797 28 53.9997V40.9998C28 38.7198 24.775 36.9998 20.5 36.9998C19.9991 36.9994 19.4984 37.0245 19 37.0748V21.9998C19 19.8098 16.023 18.1418 12 18.0128V10.7688C13.7012 11.6335 15.5925 12.0567 17.5 11.9998C19.4075 12.0567 21.2988 11.6335 23 10.7688V17.5888C22.341 18.3258 21.679 19.1288 21.026 20.0188C20.727 20.464 20.8325 21.0659 21.2652 21.3829C21.6979 21.6999 22.3036 21.6191 22.638 21.1998C23.2803 20.3303 23.9686 19.4957 24.7 18.6998C24.708 18.6908 24.715 18.6818 24.723 18.6738C26.6319 16.5522 28.8736 14.7557 31.36 13.3548C31.8502 13.5912 32.3688 13.7636 32.903 13.8678L30.325 16.2738C29.9213 16.651 29.8998 17.284 30.277 17.6878C30.6542 18.0915 31.2873 18.113 31.691 17.7358L35.691 14.0048H36.01V17.0048C36.01 17.557 36.4577 18.0048 37.01 18.0048C37.5623 18.0048 38.01 17.557 38.01 17.0048V13.9998H38.329L42.329 17.7308C42.5902 17.9748 42.9617 18.0609 43.3036 17.9568C43.6455 17.8526 43.9058 17.5739 43.9866 17.2258C44.0673 16.8776 43.9562 16.5128 43.695 16.2688L41.1 13.8528C41.631 13.7477 42.1462 13.5746 42.633 13.3378C45.276 14.7678 53.964 20.4178 57.218 34.2288C58.633 40.2408 58.123 44.8398 55.703 47.8948C52.607 51.7998 47.235 51.9997 46.19 51.9997H32C31.4477 51.9997 31 52.4475 31 52.9997C31 53.552 31.4477 53.9997 32 53.9997H46.19C47.89 53.9997 53.695 53.6488 57.27 49.1368C60.088 45.5778 60.726 40.4078 59.164 33.7708ZM7.5 48.9998C10.807 48.9998 13 50.1997 13 50.9997C13 51.7998 10.807 52.9997 7.5 52.9997C4.193 52.9997 2 51.7998 2 50.9997C2 50.1997 4.193 48.9998 7.5 48.9998ZM7.5 57.9997C4.193 57.9997 2 56.7997 2 55.9997V53.7687C3.70123 54.6334 5.59248 55.0567 7.5 54.9997C9.40752 55.0567 11.2988 54.6334 13 53.7687V55.9997C13 56.7997 10.807 57.9997 7.5 57.9997ZM20.5 55.9997C17.193 55.9997 15 54.7997 15 53.9997V43.7688C16.7012 44.6334 18.5925 45.0567 20.5 44.9998C22.4075 45.0567 24.2988 44.6334 26 43.7688V53.9997C26 54.7997 23.807 55.9997 20.5 55.9997ZM26 40.9998C26 41.7998 23.807 42.9998 20.5 42.9998C17.193 42.9998 15 41.7998 15 40.9998C15 40.1998 17.193 38.9998 20.5 38.9998C23.807 38.9998 26 40.1998 26 40.9998ZM13 40.9998V48.2308C11.2988 47.3661 9.40752 46.9428 7.5 46.9998C6.99905 46.9994 6.49841 47.0244 6 47.0748V24.7688C7.70123 25.6334 9.59248 26.0567 11.5 25.9998C13.4075 26.0567 15.2988 25.6334 17 24.7688V37.4348C14.584 38.0838 13 39.3998 13 40.9998ZM17 21.9998C17 22.7998 14.807 23.9998 11.5 23.9998C8.193 23.9998 6 22.7998 6 21.9998C6 21.1998 8.193 19.9998 11.5 19.9998C14.807 19.9998 17 21.1998 17 21.9998ZM17.5 9.99977C14.193 9.99977 12 8.79977 12 7.99977C12 7.19977 14.193 5.99977 17.5 5.99977C20.807 5.99977 23 7.19977 23 7.99977C23 8.79977 20.807 9.99977 17.5 9.99977ZM49.7 8.99977C49.7 10.6388 47.925 11.9838 45.7 11.9998C45.3278 11.9974 44.957 11.9548 44.594 11.8728C46.0454 10.3243 47.0542 8.41445 47.515 6.34277C48.7187 6.69743 49.5845 7.75023 49.7 8.99977ZM28.868 2.77977C29.7125 3.5711 30.8287 4.00784 31.986 3.99977C33.144 4.00846 34.261 3.57167 35.106 2.77977C35.6003 2.28071 36.2736 1.99994 36.976 1.99994C37.6784 1.99994 38.3517 2.28071 38.846 2.77977C39.691 3.57226 40.8086 4.00913 41.967 3.99977C43.1253 4.00872 44.2428 3.57191 45.088 2.77977C45.3651 2.53484 45.6735 2.32771 46.005 2.16377C46.005 4.02077 45.66 8.61176 42.438 11.1288C41.7131 11.6732 40.8344 11.9739 39.928 11.9878C40.7937 10.5009 41.4789 8.91601 41.969 7.26677C42.0647 6.92236 41.9695 6.55304 41.7191 6.29792C41.4687 6.0428 41.1012 5.94064 40.7551 6.02992C40.409 6.1192 40.1367 6.38636 40.041 6.73077C39.4871 8.61053 38.6357 10.3894 37.519 11.9998H36.491C35.3765 10.388 34.5249 8.60953 33.968 6.73077C33.8197 6.19864 33.2681 5.88748 32.736 6.03577C32.2039 6.18406 31.8927 6.73564 32.041 7.26777C32.5316 8.91843 33.2175 10.5046 34.084 11.9928C33.1594 11.988 32.261 11.6854 31.522 11.1298C28.3 8.61377 27.955 4.02277 27.955 2.17177C28.2864 2.33054 28.5937 2.53522 28.868 2.77977Z" fill="#084DBC"/>
        <path d="M54.1349 46.6527C55.3201 45.023 55.9625 43.0617 55.9709 41.0467C55.9837 40.7817 55.8907 40.5225 55.7123 40.3262C55.534 40.1298 55.2849 40.0124 55.0199 39.9997C54.4708 39.9802 54.0062 40.4022 53.9729 40.9507C53.9805 42.5477 53.4885 44.1071 52.5659 45.4107C50.6149 47.8747 46.9129 47.9997 46.1899 47.9997C45.6377 47.9997 45.1899 48.4474 45.1899 48.9997C45.1899 49.5519 45.6377 49.9997 46.1899 49.9997C47.0739 49.9997 51.6109 49.8387 54.1349 46.6527Z" fill="#084DBC"/>
    </g>
    <defs>
        <clipPath id="clip0_40_825">
            <rect width="60" height="60" fill="white"/>
        </clipPath>
    </defs>
</svg>
