<svg width="60" height="60" viewBox="0 0 60 60" fill="none" xmlns="http://www.w3.org/2000/svg">
    <path d="M59.0625 20.19C59.0625 17.8453 57.1547 15.9375 54.81 15.9375C53.6747 15.9375 52.6059 16.38 51.8034 17.1834L49.0247 19.9622L45.9375 23.0494V13.9875C49.1128 13.53 51.5625 10.7991 51.5625 7.5C51.5625 3.88125 48.6188 0.9375 45 0.9375H7.5C3.88125 0.9375 0.9375 3.88125 0.9375 7.5V54.375C0.9375 54.8925 1.3575 55.3125 1.875 55.3125H6.5625V58.125C6.5625 58.6425 6.9825 59.0625 7.5 59.0625H45C45.5175 59.0625 45.9375 58.6425 45.9375 58.125V35.0756L55.0378 25.9753L56.0006 25.0125C55.515 27.4312 54.3309 29.655 52.5478 31.4391L48.0881 35.8988L49.4137 37.2244L53.8734 32.7647C56.5341 30.1041 58.0219 26.5903 58.1091 22.8412C58.7156 22.0894 59.0625 21.1706 59.0625 20.19ZM53.1291 18.5091C53.5781 18.06 54.1753 17.8125 54.81 17.8125C56.1206 17.8125 57.1875 18.8794 57.1875 20.19C57.1875 20.8247 56.94 21.4219 56.4909 21.8709L54.375 23.9869L51.0131 20.625L53.1291 18.5091ZM49.6875 21.9506L50.7056 22.9688L38.9062 34.7681L37.8881 33.75L49.6875 21.9506ZM27.3909 46.6903L29.3194 42.8325L32.1675 45.6806L28.3097 47.6091L27.3909 46.6903ZM30.3881 41.25L36.5625 35.0756L39.9244 38.4375L33.75 44.6119L30.3881 41.25ZM45 2.8125C47.5847 2.8125 49.6875 4.91531 49.6875 7.5C49.6875 10.0847 47.5847 12.1875 45 12.1875H12.0844C13.3031 10.995 14.0625 9.33562 14.0625 7.5C14.0625 5.66437 13.3031 4.005 12.0844 2.8125H45ZM8.4375 12.0928V9.375C8.4375 8.85844 8.85844 8.4375 9.375 8.4375H12.0928C11.7188 10.2712 10.2712 11.7188 8.4375 12.0928ZM2.8125 53.4375V7.5C2.8125 4.91531 4.91531 2.8125 7.5 2.8125C9.76313 2.8125 11.6569 4.42594 12.0928 6.5625H9.375C7.82438 6.5625 6.5625 7.82438 6.5625 9.375V53.4375H2.8125ZM44.0625 57.1875H8.4375V14.0625H44.0625V24.9244L39.9244 29.0625H12.1875V30.9375H38.0494L36.1744 32.8125H12.1875V34.6875H34.2994L28.3997 40.5872C28.3266 40.6603 28.2788 40.7475 28.2347 40.8356L28.2244 40.83L25.4119 46.455C25.2319 46.8159 25.3022 47.2519 25.5881 47.5369L25.8619 47.8125L23.7122 49.9622L25.0378 51.2878L27.1875 49.1381L27.4622 49.4128C27.6422 49.5928 27.8822 49.6875 28.125 49.6875C28.2666 49.6875 28.4109 49.6547 28.5441 49.5891L34.1691 46.7766L34.1634 46.7663C34.2516 46.7222 34.3388 46.6744 34.4119 46.6012L41.9119 39.1012L44.0625 36.9506V57.1875ZM41.25 37.1119L40.2319 36.0938L52.0312 24.2944L53.0494 25.3125L41.25 37.1119Z" fill="#084DBC"/>
    <path d="M12.1875 17.8125H40.3125V19.6875H12.1875V17.8125Z" fill="#084DBC"/>
    <path d="M12.1875 21.5625H40.3125V23.4375H12.1875V21.5625Z" fill="#084DBC"/>
    <path d="M12.1875 25.3125H40.3125V27.1875H12.1875V25.3125Z" fill="#084DBC"/>
    <path d="M12.1875 47.8125H22.5V49.6875H12.1875V47.8125Z" fill="#084DBC"/>
    <path d="M12.1875 51.5625H40.3125V53.4375H12.1875V51.5625Z" fill="#084DBC"/>
</svg>
