<svg width="1920" height="231" viewBox="0 0 1920 231" fill="none" xmlns="http://www.w3.org/2000/svg">
    <rect x="57.8494" y="-37.6621" width="50" height="326" transform="rotate(30 57.8494 -37.6621)" fill="#0448B7"/>
    <rect x="159.849" y="-37.6621" width="50" height="326" transform="rotate(30 159.849 -37.6621)" fill="#0448B7"/>
    <rect x="261.849" y="-37.6621" width="50" height="326" transform="rotate(30 261.849 -37.6621)" fill="#0448B7"/>
    <rect x="363.849" y="-37.6621" width="50" height="326" transform="rotate(30 363.849 -37.6621)" fill="#0448B7"/>
    <rect x="465.849" y="-37.6621" width="50" height="326" transform="rotate(30 465.849 -37.6621)" fill="#0448B7"/>
    <rect x="567.849" y="-37.6621" width="50" height="326" transform="rotate(30 567.849 -37.6621)" fill="#0448B7"/>
    <rect x="669.849" y="-37.6621" width="50" height="326" transform="rotate(30 669.849 -37.6621)" fill="#0448B7"/>
    <rect x="771.849" y="-37.6621" width="50" height="326" transform="rotate(30 771.849 -37.6621)" fill="#0448B7"/>
    <rect x="873.849" y="-37.6621" width="50" height="326" transform="rotate(30 873.849 -37.6621)" fill="#0448B7"/>
    <rect x="975.849" y="-37.6621" width="50" height="326" transform="rotate(30 975.849 -37.6621)" fill="#0448B7"/>
    <rect x="1077.85" y="-37.6621" width="50" height="326" transform="rotate(30 1077.85 -37.6621)" fill="#0448B7"/>
    <rect x="1179.85" y="-37.6621" width="50" height="326" transform="rotate(30 1179.85 -37.6621)" fill="#0448B7"/>
    <rect x="1281.85" y="-37.6621" width="50" height="326" transform="rotate(30 1281.85 -37.6621)" fill="#0448B7"/>
    <rect x="1383.85" y="-37.6621" width="50" height="326" transform="rotate(30 1383.85 -37.6621)" fill="#0448B7"/>
    <rect x="1485.85" y="-37.6621" width="50" height="326" transform="rotate(30 1485.85 -37.6621)" fill="#0448B7"/>
    <rect x="1587.85" y="-37.6621" width="50" height="326" transform="rotate(30 1587.85 -37.6621)" fill="#0448B7"/>
    <rect x="1689.85" y="-37.6621" width="50" height="326" transform="rotate(30 1689.85 -37.6621)" fill="#0448B7"/>
    <rect x="1791.85" y="-37.6621" width="50" height="326" transform="rotate(30 1791.85 -37.6621)" fill="#0448B7"/>
    <rect x="1893.85" y="-37.6621" width="50" height="326" transform="rotate(30 1893.85 -37.6621)" fill="#0448B7"/>
    <rect x="1995.85" y="-37.6621" width="50" height="326" transform="rotate(30 1995.85 -37.6621)" fill="#0448B7"/>
</svg>
