<svg width="31" height="28" viewBox="0 0 31 28" fill="none" xmlns="http://www.w3.org/2000/svg">
    <path d="M29.3974 9.08989H24.8554L23.8875 6.50868C23.7468 6.13336 23.388 5.88477 22.9872 5.88477H14.0128C13.612 5.88477 13.2532 6.13336 13.1125 6.50868L12.1446 9.08989H7.60256C6.7175 9.08989 6 9.80739 6 10.6925V23.513C6 24.398 6.7175 25.1155 7.60256 25.1155H29.3974C30.2825 25.1155 31 24.398 31 23.513V10.6925C31 9.80739 30.2825 9.08989 29.3974 9.08989ZM18.5 11.013C21.8579 11.013 24.5897 13.7448 24.5897 17.1027C24.5897 20.4606 21.8579 23.1925 18.5 23.1925C15.1421 23.1925 12.4103 20.4606 12.4103 17.1027C12.4103 13.7448 15.1421 11.013 18.5 11.013Z" fill="#084DBC"/>
    <path d="M14.332 17.1022C14.332 19.3997 16.2012 21.2689 18.4987 21.2689C20.7962 21.2689 22.6654 19.3997 22.6654 17.1022C22.6654 14.8047 20.7962 12.9355 18.4987 12.9355C16.2012 12.9355 14.332 14.8047 14.332 17.1022Z" fill="#084DBC"/>
    <path d="M5.88889 1.4H5.28889V2V5.28889L2 5.28889L1.4 5.28889V5.88889L1.4 8.11111V8.71111H2L5.28889 8.71111V12V12.6H5.88889H8.11111H8.71111V12V8.71111L12 8.71111H12.6V8.11111V5.88889V5.28889H12L8.71111 5.28889V2V1.4H8.11111H5.88889Z" fill="white" stroke="#084DBC" stroke-width="1.2"/>
</svg>
