<svg width="50" height="50" viewBox="0 0 50 50" fill="none" xmlns="http://www.w3.org/2000/svg">
    <g clip-path="url(#clip0_136_2770)">
        <path d="M25 50C38.8071 50 50 38.8071 50 25C50 11.1929 38.8071 0 25 0C11.1929 0 0 11.1929 0 25C0 38.8071 11.1929 50 25 50Z" fill="#3685E6"/>
        <path d="M18.6121 36.2778L31.467 49.1326C42.1136 46.2935 50.0001 36.5932 50.0001 25.0001C50.0001 24.7636 50.0001 24.527 50.0001 24.2904L39.9054 14.9844L18.6121 36.2778Z" fill="#084DBC"/>
        <path d="M25.6308 30.5985C26.7349 31.7026 26.7349 33.5953 25.6308 34.6994L23.3437 36.9865C22.2396 38.0906 20.3469 38.0906 19.2428 36.9865L9.227 26.8919C8.1229 25.7878 8.1229 23.895 9.227 22.7909L11.5141 20.5039C12.6182 19.3998 14.5109 19.3998 15.615 20.5039L25.6308 30.5985Z" fill="white"/>
        <path d="M34.3845 13.1699C35.4886 12.0658 37.3814 12.0658 38.4855 13.1699L40.7725 15.4569C41.8766 16.561 41.8766 18.4538 40.7725 19.5579L23.4224 36.8292C22.3183 37.9333 20.4255 37.9333 19.3214 36.8292L17.0344 34.5421C15.9303 33.438 15.9303 31.5453 17.0344 30.4412L34.3845 13.1699Z" fill="white"/>
    </g>
    <defs>
        <clipPath id="clip0_136_2770">
            <rect width="50" height="50" fill="white"/>
        </clipPath>
    </defs>
</svg>
