<svg width="30" height="30" viewBox="0 0 30 30" fill="none" xmlns="http://www.w3.org/2000/svg">
    <g clip-path="url(#clip0_1130_13905)">
        <circle cx="15" cy="15" r="14.3182" stroke="#084DBC" stroke-width="1.36364"/>
        <path d="M8.60925 16.5857L8.96463 15.7457H16.2662L15.9108 16.5857H8.60925ZM16.8316 13.9526L16.4762 14.7926H8.99694L9.35233 13.9526H16.8316ZM10.1762 14.9541C10.1762 14.2541 10.2946 13.5703 10.5316 12.9026C10.7792 12.2241 11.1346 11.6103 11.5977 11.0611C12.0716 10.5011 12.6477 10.0595 13.3262 9.73645C14.0046 9.40261 14.7746 9.23568 15.6362 9.23568C16.6592 9.23568 17.5369 9.47261 18.2692 9.94645C19.0016 10.4095 19.5454 11.0072 19.9008 11.7395L18.7539 12.4826C18.5277 11.998 18.2369 11.6157 17.8816 11.3357C17.5369 11.0449 17.16 10.8403 16.7508 10.7218C16.3523 10.6034 15.9592 10.5441 15.5716 10.5441C14.9362 10.5441 14.3708 10.6734 13.8754 10.9318C13.3908 11.1903 12.9816 11.5349 12.6477 11.9657C12.3139 12.3965 12.0608 12.8811 11.8885 13.4195C11.7269 13.9472 11.6462 14.4803 11.6462 15.0188C11.6462 15.6111 11.7431 16.1818 11.9369 16.7311C12.1416 17.2803 12.4216 17.7649 12.7769 18.1849C13.1323 18.6049 13.5523 18.9388 14.0369 19.1865C14.5216 19.4341 15.0492 19.558 15.62 19.558C16.0185 19.558 16.4277 19.488 16.8477 19.348C17.2677 19.208 17.6608 18.9926 18.0269 18.7018C18.3931 18.4003 18.6839 18.0126 18.8992 17.5388L20.1108 18.2011C19.8739 18.7718 19.5077 19.2565 19.0123 19.6549C18.5169 20.0534 17.9623 20.3549 17.3485 20.5595C16.7454 20.7641 16.1477 20.8665 15.5554 20.8665C14.7692 20.8665 14.0477 20.6995 13.3908 20.3657C12.7339 20.0211 12.1631 19.5688 11.6785 19.0088C11.2046 18.438 10.8331 17.8026 10.5639 17.1026C10.3054 16.3918 10.1762 15.6757 10.1762 14.9541Z" fill="#084DBC"/>
    </g>
    <defs>
        <clipPath id="clip0_1130_13905">
            <rect width="30" height="30" fill="white"/>
        </clipPath>
    </defs>
</svg>
