<svg width="30" height="30" viewBox="0 0 30 30" fill="none" xmlns="http://www.w3.org/2000/svg">
    <circle cx="15" cy="15" r="15" fill="#EFF2F9"/>
    <g clip-path="url(#clip0_0_1)">
        <path d="M15 5C10.9657 5 7.69531 8.27242 7.69531 12.3086C7.69531 16.7521 10.7399 17.7992 12.3373 20.5235C13.8244 23.0588 13.8256 25 15 25C16.2179 25 16.141 23.1916 17.6627 20.5236C19.184 17.8551 22.3047 16.7521 22.3047 12.3086C22.3047 8.27242 19.0343 5 15 5V5ZM15 15.1095C13.4908 15.1095 12.2673 13.8853 12.2673 12.3755C12.2673 11.6201 12.5731 10.9368 13.0678 10.4419C13.5624 9.9473 14.2454 9.64105 15 9.64105C16.5092 9.64105 17.7323 10.8652 17.7323 12.3755C17.7323 13.8853 16.5092 15.1095 15 15.1095Z" fill="#4CAF50"/>
        <path d="M15.0002 5C14.7969 5 14.5956 5.00871 14.3965 5.025C18.1483 5.33219 21.0975 8.47582 21.0975 12.3086C21.0975 16.7521 17.9768 17.8551 16.4555 20.5235C15.2502 22.6367 15.0477 24.2104 14.4105 24.7736C14.5739 24.9208 14.7631 25 15.0002 25C16.218 25 16.1412 23.1916 17.6629 20.5236C19.1842 17.8551 22.3049 16.7521 22.3049 12.3086C22.3049 8.27242 19.0345 5 15.0002 5V5Z" fill="#43A047"/>
        <path d="M13.0676 10.442L8.26508 15.2472C7.91379 14.4467 7.69531 13.4997 7.69531 12.3087C7.69531 10.3072 8.49945 8.494 9.80172 7.17419L13.0676 10.442Z" fill="#F44336"/>
        <path d="M16.9515 14.2892C17.4347 13.796 17.7326 13.1205 17.7326 12.3754C17.7326 10.8651 16.5092 9.64099 15.0002 9.64099C14.2455 9.64099 13.5624 9.94712 13.0679 10.4419L17.9058 5.60138C19.6351 6.35197 21.0167 7.75251 21.7437 9.49497L16.9516 14.2897L16.9515 14.2892Z" fill="#42A5F5"/>
        <path d="M17.9059 5.60138L17.498 6.00943C19.1205 6.96677 20.3409 8.53337 20.8444 10.3949L21.7439 9.49498C21.0168 7.75247 19.6352 6.35197 17.9059 5.60138Z" fill="#2196F3"/>
        <path d="M16.9515 14.2898L11.677 19.5671C10.5302 18.1217 9.05885 17.0591 8.26514 15.2472L13.0677 10.442C12.5732 10.9368 12.2672 11.6203 12.2672 12.3755C12.2672 13.8853 13.4906 15.1094 15.0001 15.1094C15.7644 15.1094 16.4554 14.7953 16.9513 14.2892L16.9515 14.2898Z" fill="#FFC107"/>
        <path d="M17.9056 5.60141L13.0677 10.442L9.80176 7.17426C11.1263 5.8318 12.9662 5 15.0001 5C16.0327 5 17.0154 5.21453 17.9056 5.60141Z" fill="#1E88E5"/>
        <path d="M15.0002 5C14.797 5 14.5957 5.00867 14.3966 5.025C14.3966 5.025 14.3965 5.02504 14.3965 5.02504C15.5219 5.11719 16.575 5.4648 17.498 6.00945L17.9058 5.60141C17.0155 5.21453 16.0328 5 15.0002 5V5Z" fill="#1976D2"/>
    </g>
    <defs>
        <clipPath id="clip0_0_1">
            <rect width="20" height="20" fill="white" transform="translate(5 5)"/>
        </clipPath>
    </defs>
</svg>
