<svg width="22" height="22" viewBox="0 0 22 22" fill="none" xmlns="http://www.w3.org/2000/svg">
    <g clip-path="url(#clip0_220_506)">
        <path d="M8.12247e-06 11.0002C-0.00158172 12.3055 0.23023 13.6006 0.6845 14.8244L11 15.3022L21.3155 14.8244C22.2282 12.3557 22.2282 9.64205 21.3155 7.17336L11 6.69727L0.6845 7.17594C0.23023 8.39969 -0.00158172 9.69481 8.12247e-06 11.0002Z" fill="#F0F0F0"/>
        <path d="M11.0001 0C6.27008 0 2.23875 2.98203 0.68457 7.17578H21.3156C19.7614 2.98203 15.7297 0 11.0001 0Z" fill="#8D2020"/>
        <path d="M21.3151 14.8242H0.684082C2.23826 19.0167 6.27002 22 10.9996 22C15.7292 22 19.7613 19.018 21.3151 14.8242Z" fill="#8D2020"/>
    </g>
    <defs>
        <clipPath id="clip0_220_506">
            <rect width="22" height="22" fill="white"/>
        </clipPath>
    </defs>
</svg>
