<svg width="40" height="41" viewBox="0 0 40 41" fill="none" xmlns="http://www.w3.org/2000/svg">
    <g clip-path="url(#clip0_40_355)">
        <path d="M19.9999 0.5C12.012 0.5 5.51343 6.99859 5.51343 14.9864C5.51343 24.8995 18.4774 39.4526 19.0294 40.0673C19.5478 40.6447 20.453 40.6437 20.9705 40.0673C21.5224 39.4526 34.4864 24.8995 34.4864 14.9864C34.4862 6.99859 27.9877 0.5 19.9999 0.5ZM19.9999 22.2749C15.981 22.2749 12.7115 19.0053 12.7115 14.9864C12.7115 10.9675 15.9811 7.69797 19.9999 7.69797C24.0187 7.69797 27.2883 10.9676 27.2883 14.9865C27.2883 19.0054 24.0187 22.2749 19.9999 22.2749Z" fill="#084DBC"/>
    </g>
    <defs>
        <clipPath id="clip0_40_355">
            <rect y="0.5" width="40" height="40" rx="5" fill="white"/>
        </clipPath>
    </defs>
</svg>
