<svg xmlns="http://www.w3.org/2000/svg" width="331.164" height="66.84" viewBox="0 0 331.164 66.84">
    <path id="Контур_1" data-name="Контур 1" d="M145.017,75.86l12.727-66.84H339L328.429,75.86Z"
          transform="translate(-7.836 -9.021)" fill="#fff"/>
    <path id="Контур_2" data-name="Контур 2"
          d="M22.014,63.3l-2.375,7.034H7.836L29.089,13.67H41.62l-.072,56.662h-11.8l.272-7.034ZM25,54.31h5.417l1.112-20.085Z"
          transform="translate(-7.836 -9.021)" fill="#fff"/>
    <path id="Контур_3" data-name="Контур 3"
          d="M53.917,70.332q-5.094,0-6.732-2.032t-.756-6.721L55.444,13.67H67.409l-8.56,45.486a1.617,1.617,0,0,0,.026.938c.094.209.385.313.87.313h4.124a1.246,1.246,0,0,0,.988-.313,2.065,2.065,0,0,0,.379-.938L73.8,13.67H85.76L76.744,61.579q-.882,4.689-3.285,6.721t-7.5,2.032Z"
          transform="translate(-7.836 -9.021)" fill="#fff"/>
    <path id="Контур_4" data-name="Контур 4"
          d="M113.732,13.67l.925,10.551h-7.842L98.137,70.332H86.173L94.85,24.221H87.009L92.066,13.67Z"
          transform="translate(-7.836 -9.021)" fill="#fff"/>
    <path id="Контур_5" data-name="Контур 5"
          d="M141.124,62.282a12.91,12.91,0,0,1-.984,3.088,8.162,8.162,0,0,1-1.853,2.539,8.822,8.822,0,0,1-2.918,1.759,11.7,11.7,0,0,1-4.167.664H117.62a9.729,9.729,0,0,1-3.917-.664,5.269,5.269,0,0,1-2.256-1.759,5.158,5.158,0,0,1-.9-2.539,11.151,11.151,0,0,1,.177-3.088l7.765-41.266a9.106,9.106,0,0,1,2.907-5.353,9.4,9.4,0,0,1,6.4-1.993H142.35q4.122,0,5.648,1.993a6.514,6.514,0,0,1,.892,5.353ZM130.862,23.6A1.177,1.177,0,0,0,129.6,24.69l-6.5,34.544a1.424,1.424,0,0,0,.033.9c.1.183.393.274.878.274h4.447a1.331,1.331,0,0,0,.981-.274,1.831,1.831,0,0,0,.371-.9l6.5-34.544q.205-1.094-.845-1.094Z"
          transform="translate(-7.836 -9.021)" fill="#fff"/>
    <path id="Контур_6" data-name="Контур 6"
          d="M189.4,36.1a8.667,8.667,0,0,1-1.532,3.635,6.193,6.193,0,0,1-3.6,2.149,3.613,3.613,0,0,1,3.208,1.641,4.91,4.91,0,0,1,.458,3.361l-2.764,14.693q-.884,4.689-3.286,6.721t-7.5,2.032H153.128L163.791,13.67h22.878q3.475,0,4.861,1.876a6.2,6.2,0,0,1,.8,5ZM175.957,48.683q.177-.937-.242-1.289a1.864,1.864,0,0,0-1.227-.352h-5.336l-2.515,13.365h5.9a1.493,1.493,0,0,0,1.022-.274,1.61,1.61,0,0,0,.412-.9ZM173.564,23.6,170.77,38.445h5.5a1.811,1.811,0,0,0,1.117-.352A1.748,1.748,0,0,0,178,36.96l2.31-12.27q.2-1.094-.846-1.094Z"
          transform="translate(-7.836 -9.021)" fill="#084DBC"/>
    <path id="Контур_7" data-name="Контур 7"
          d="M200.935,63.3l-2.374,7.034h-11.8L208.01,13.67h12.531l-.072,56.662h-11.8l.272-7.034Zm2.985-8.988h5.416l1.113-20.085Z"
          transform="translate(-7.836 -9.021)" fill="#084DBC"/>
    <path id="Контур_8" data-name="Контур 8"
          d="M234.365,13.67h11.157l1.7,22.743L251.5,13.67h12.046L252.887,70.332H240.841l-1.849-23.681-4.457,23.681H223.7Z"
          transform="translate(-7.836 -9.021)" fill="#084DBC"/>
    <path id="Контур_9" data-name="Контур 9"
          d="M275.79,37.976h1.779L288.124,13.67H300.25L288.3,39.774l1.2,30.558H276.653l-.21-23.368H274.1l-4.4,23.368H257.736L268.4,13.67h11.964Z"
          transform="translate(-7.836 -9.021)" fill="#084DBC"/>
    <path id="Контур_10" data-name="Контур 10"
          d="M305.382,63.3l-2.375,7.034H291.2L312.457,13.67h12.531l-.072,56.662h-11.8l.272-7.034Zm2.984-8.988h5.417l1.112-20.085Z"
          transform="translate(-7.836 -9.021)" fill="#084DBC"/>
</svg>
