<svg width="30" height="30" viewBox="0 0 30 30" fill="none" xmlns="http://www.w3.org/2000/svg">
    <circle cx="15" cy="15" r="15" fill="#084DBC"/>
    <g clip-path="url(#clip0_55_4982)">
        <path d="M13.2112 16.7885C11.7795 15.3568 11.4562 13.925 11.3833 13.3514C11.3629 13.1928 11.4175 13.0337 11.5309 12.9211L12.6896 11.763C12.86 11.5926 12.8902 11.3272 12.7625 11.1229L10.9177 8.25839C10.7764 8.03217 10.4862 7.95052 10.2477 8.06986L7.28619 9.4646C7.09328 9.55959 6.97981 9.76456 7.00171 9.97848C7.15688 11.4526 7.79956 15.0764 11.3608 18.6379C14.922 22.1993 18.5452 22.8418 20.0202 22.9969C20.2341 23.0188 20.439 22.9054 20.534 22.7124L21.9288 19.751C22.0477 19.5129 21.9666 19.2235 21.7413 19.0819L18.8768 17.2377C18.6726 17.1098 18.4072 17.1399 18.2367 17.3101L17.0786 18.4687C16.9659 18.5822 16.8069 18.6368 16.6483 18.6164C16.0746 18.5435 14.6429 18.2202 13.2112 16.7885Z" fill="white"/>
        <path d="M18.8962 16.0175C18.6106 16.0175 18.379 15.7859 18.379 15.5002C18.3766 13.3587 16.6411 11.6233 14.4997 11.6209C14.214 11.6209 13.9824 11.3893 13.9824 11.1037C13.9824 10.818 14.214 10.5864 14.4997 10.5864C17.2122 10.5894 19.4105 12.7876 19.4135 15.5002C19.4135 15.7859 19.1819 16.0175 18.8962 16.0175Z" fill="white"/>
        <path d="M21.4824 16.0172C21.1968 16.0172 20.9652 15.7857 20.9652 15.5C20.9612 11.9308 18.0688 9.03847 14.4997 9.03448C14.214 9.03448 13.9824 8.80291 13.9824 8.51724C13.9824 8.23158 14.214 8 14.4997 8C18.6399 8.00456 21.9951 11.3598 21.9997 15.5C21.9997 15.6372 21.9452 15.7687 21.8482 15.8657C21.7512 15.9627 21.6196 16.0172 21.4824 16.0172Z" fill="white"/>
    </g>
    <defs>
        <clipPath id="clip0_55_4982">
            <rect width="15" height="15" fill="white" transform="translate(7 8)"/>
        </clipPath>
    </defs>
</svg>
