<svg width="22" height="22" viewBox="0 0 22 22" fill="none" xmlns="http://www.w3.org/2000/svg">
    <g clip-path="url(#clip0_40_643)">
        <path d="M11 22C17.0745 22 22 17.0745 22 11C22 4.92551 17.0745 0 11 0C4.92551 0 0 4.92551 0 11C0 17.0745 4.92551 22 11 22Z" fill="#F0F0F0"/>
        <path d="M21.3155 14.8242C22.2282 12.3555 22.2282 9.6419 21.3155 7.17322H0.684497C-0.228166 9.6419 -0.228166 12.3555 0.684497 14.8242L11 15.7854L21.3155 14.8242Z" fill="#084DBC"/>
        <path d="M11.0001 22C15.7301 22 19.7631 19.018 21.3156 14.8242H0.68457C2.23875 19.018 6.27008 22 11.0001 22Z" fill="#D80027"/>
    </g>
    <defs>
        <clipPath id="clip0_40_643">
            <rect width="22" height="22" fill="white"/>
        </clipPath>
    </defs>
</svg>
