<svg xmlns="http://www.w3.org/2000/svg" display="none">

	<symbol id="instagram" viewBox="0 0 16 16">
		<path
			d="M8.00255 3.89209C5.73388 3.89209 3.89722 5.73076 3.89722 7.99742C3.89722 10.2661 5.73588 12.1028 8.00255 12.1028C10.2712 12.1028 12.1079 10.2641 12.1079 7.99742C12.1079 5.72876 10.2692 3.89209 8.00255 3.89209V3.89209ZM8.00255 10.6621C6.52988 10.6621 5.33788 9.46942 5.33788 7.99742C5.33788 6.52542 6.53055 5.33276 8.00255 5.33276C9.47455 5.33276 10.6672 6.52542 10.6672 7.99742C10.6679 9.46942 9.47522 10.6621 8.00255 10.6621V10.6621Z" />
		<path
			d="M11.2986 0.0507461C9.82657 -0.0179206 6.18057 -0.0145873 4.70724 0.0507461C3.41257 0.111413 2.27057 0.424079 1.34991 1.34475C-0.188759 2.88341 0.00790737 4.95675 0.00790737 7.99742C0.00790737 11.1094 -0.165426 13.1348 1.34991 14.6501C2.89457 16.1941 4.99791 15.9921 8.00257 15.9921C11.0852 15.9921 12.1492 15.9941 13.2392 15.5721C14.7212 14.9968 15.8399 13.6721 15.9492 11.2927C16.0186 9.82008 16.0146 6.17475 15.9492 4.70141C15.8172 1.89275 14.3099 0.189413 11.2986 0.0507461V0.0507461ZM13.6286 13.6321C12.6199 14.6408 11.2206 14.5508 7.98324 14.5508C4.64991 14.5508 3.31324 14.6001 2.33791 13.6221C1.21457 12.5041 1.41791 10.7088 1.41791 7.98675C1.41791 4.30341 1.03991 1.65075 4.73657 1.46141C5.58591 1.43141 5.83591 1.42141 7.97391 1.42141L8.00391 1.44141C11.5566 1.44141 14.3439 1.06941 14.5112 4.76541C14.5492 5.60875 14.5579 5.86208 14.5579 7.99675C14.5572 11.2914 14.6199 12.6361 13.6286 13.6321V13.6321Z" />
		<path
			d="M12.2706 4.68918C12.8004 4.68918 13.2299 4.25967 13.2299 3.72984C13.2299 3.20002 12.8004 2.77051 12.2706 2.77051C11.7408 2.77051 11.3113 3.20002 11.3113 3.72984C11.3113 4.25967 11.7408 4.68918 12.2706 4.68918Z" />
	</symbol>

	<symbol id="fb" viewBox="0 0 9 16">
		<path
			d="M6.66476 2.65667H8.12542V0.112667C7.87342 0.078 7.00676 0 5.99742 0C3.89142 0 2.44876 1.32467 2.44876 3.75933V6H0.124756V8.844H2.44876V16H5.29809V8.84467H7.52809L7.88209 6.00067H5.29742V4.04133C5.29809 3.21933 5.51942 2.65667 6.66476 2.65667V2.65667Z" />
	</symbol>

	<symbol id="phone" viewBox="0 0 15 15">
		<path
			d="M6.21144 8.78848C4.77971 7.35676 4.45644 5.92503 4.38351 5.35141C4.36313 5.1928 4.41771 5.03374 4.53118 4.92107L5.6898 3.76296C5.86024 3.59263 5.89048 3.32718 5.76273 3.12288L3.91799 0.258395C3.77666 0.0321659 3.48647 -0.0494823 3.2479 0.0698602L0.286439 1.4646C0.0935229 1.55959 -0.0199475 1.76456 0.00195594 1.97848C0.157128 3.45262 0.799801 7.07641 4.36101 10.6379C7.92221 14.1993 11.5455 14.8418 13.0204 14.9969C13.2343 15.0188 13.4393 14.9054 13.5343 14.7124L14.929 11.751C15.0479 11.5129 14.9668 11.2235 14.7415 11.0819L11.877 9.2377C11.6729 9.10982 11.4074 9.13985 11.237 9.31012L10.0789 10.4687C9.96617 10.5822 9.80711 10.6368 9.64851 10.6164C9.07489 10.5435 7.64316 10.2202 6.21144 8.78848V8.78848Z" />
		<path
			d="M11.8967 8.01746C11.611 8.01746 11.3795 7.78588 11.3795 7.50022C11.377 5.35874 9.64163 3.62333 7.50015 3.62091C7.21449 3.62091 6.98291 3.38933 6.98291 3.10367C6.98291 2.818 7.21449 2.58643 7.50015 2.58643C10.2127 2.58942 12.411 4.78765 12.4139 7.50022C12.4139 7.78588 12.1824 8.01746 11.8967 8.01746Z" />
		<path
			d="M14.4829 8.01724C14.1973 8.01724 13.9657 7.78567 13.9657 7.5C13.9617 3.93085 11.0693 1.03847 7.50015 1.03448C7.21449 1.03448 6.98291 0.802906 6.98291 0.517241C6.98291 0.231577 7.21449 0 7.50015 0C11.6404 0.004561 14.9956 3.35976 15.0002 7.5C15.0002 7.63718 14.9457 7.76874 14.8487 7.86575C14.7517 7.96275 14.6201 8.01724 14.4829 8.01724Z" />
	</symbol>

	<symbol id="arrow-links" viewBox="0 0 31 8">
		<path
			d="M30.3536 4.35356C30.5488 4.15829 30.5488 3.84171 30.3536 3.64645L27.1716 0.464468C26.9763 0.269206 26.6597 0.269206 26.4645 0.464468C26.2692 0.659731 26.2692 0.976313 26.4645 1.17158L29.2929 4L26.4645 6.82843C26.2692 7.02369 26.2692 7.34027 26.4645 7.53554C26.6597 7.7308 26.9763 7.7308 27.1716 7.53554L30.3536 4.35356ZM-4.37114e-08 4.5L30 4.5L30 3.5L4.37114e-08 3.5L-4.37114e-08 4.5Z" />
	</symbol>


	<symbol id="mail" viewBox="0 0 14 14">
		<path
			d="M13.8765 2.78125L9.63062 6.99982L13.8765 11.2184C13.9533 11.058 13.9998 10.8806 13.9998 10.6912V3.30841C13.9998 3.119 13.9533 2.94168 13.8765 2.78125Z" />
		<path
			d="M12.7693 2.07812H1.23029C1.04088 2.07812 0.863551 2.12469 0.703125 2.20145L6.12985 7.60083C6.60968 8.08066 7.38996 8.08066 7.86979 7.60083L13.2965 2.20145C13.1361 2.12469 12.9588 2.07812 12.7693 2.07812Z" />
		<path
			d="M0.12332 2.78125C0.0465664 2.94168 0 3.119 0 3.30841V10.6912C0 10.8806 0.0465664 11.058 0.12332 11.2184L4.36923 6.99982L0.12332 2.78125Z" />
		<path
			d="M9.0506 7.58008L8.44977 8.1809C7.65027 8.9804 6.34934 8.9804 5.54983 8.1809L4.94904 7.58008L0.703125 11.7986C0.863551 11.8754 1.04088 11.922 1.23029 11.922H12.7693C12.9588 11.922 13.1361 11.8754 13.2965 11.7986L9.0506 7.58008Z" />
	</symbol>

	<symbol id="location" viewBox="0 0 30 30">
		<path
			d="M15.0001 0C9.0092 0 4.13525 4.87395 4.13525 10.8648C4.13525 18.2997 13.8582 29.2144 14.2722 29.6755C14.661 30.1085 15.3399 30.1078 15.728 29.6755C16.142 29.2144 25.865 18.2997 25.865 10.8648C25.8649 4.87395 20.991 0 15.0001 0ZM15.0001 16.3312C11.9859 16.3312 9.53379 13.879 9.53379 10.8648C9.53379 7.85063 11.986 5.39848 15.0001 5.39848C18.0142 5.39848 20.4664 7.85068 20.4664 10.8649C20.4664 13.879 18.0142 16.3312 15.0001 16.3312Z" />
	</symbol>

	<symbol id="play" viewBox="0 0 21 24">
		<path
			d="M20 10.268C21.3333 11.0378 21.3333 12.9623 20 13.7321L3.5 23.2583C2.16666 24.0281 0.500001 23.0659 0.500001 21.5263L0.500002 2.47372C0.500002 0.934117 2.16667 -0.0281314 3.5 0.741669L20 10.268Z" />
	</symbol>

	<symbol id="arrow-left" viewBox="0 0 20 35">
		<path d="M19 1L2 17.5L19 34" stroke-width="2" />
	</symbol>

	<symbol id="arrow-right" viewBox="0 0 20 35">
		<path d="M1 34L18 17.5L1 1" stroke-width="2" />
	</symbol>

	<symbol id="close" viewBox="0 0 20 20">
		<path d="M1 1L19 19" />
		<path d="M19 1L0.999999 19" />
	</symbol>

	<symbol id="clock" viewBox="0 0 16 16">
		<g>
			<path
				d="M8 0C3.58862 0 0 3.58862 0 8C0 12.4114 3.58862 16 8 16C12.4114 16 16 12.4114 16 8C16 3.58862 12.4114 0 8 0ZM11.8047 12.1379C11.6747 12.2679 11.504 12.3334 11.3334 12.3334C11.1627 12.3334 10.9919 12.2679 10.8621 12.1379L7.52869 8.80469C7.40332 8.68005 7.33337 8.51062 7.33337 8.33337V4C7.33337 3.63135 7.63196 3.33337 8 3.33337C8.36804 3.33337 8.66663 3.63135 8.66663 4V8.05737L11.8047 11.1953C12.0653 11.4561 12.0653 11.8773 11.8047 12.1379Z"/>
		</g>
		
	</symbol>

</svg>