<svg xmlns="http://www.w3.org/2000/svg" display="none">

    <symbol id="instagram" viewBox="0 0 16 16">
        <path d="M8.00255 3.89209C5.73388 3.89209 3.89722 5.73076 3.89722 7.99742C3.89722 10.2661 5.73588 12.1028 8.00255 12.1028C10.2712 12.1028 12.1079 10.2641 12.1079 7.99742C12.1079 5.72876 10.2692 3.89209 8.00255 3.89209V3.89209ZM8.00255 10.6621C6.52988 10.6621 5.33788 9.46942 5.33788 7.99742C5.33788 6.52542 6.53055 5.33276 8.00255 5.33276C9.47455 5.33276 10.6672 6.52542 10.6672 7.99742C10.6679 9.46942 9.47522 10.6621 8.00255 10.6621V10.6621Z"/>
        <path d="M11.2986 0.0507461C9.82657 -0.0179206 6.18057 -0.0145873 4.70724 0.0507461C3.41257 0.111413 2.27057 0.424079 1.34991 1.34475C-0.188759 2.88341 0.00790737 4.95675 0.00790737 7.99742C0.00790737 11.1094 -0.165426 13.1348 1.34991 14.6501C2.89457 16.1941 4.99791 15.9921 8.00257 15.9921C11.0852 15.9921 12.1492 15.9941 13.2392 15.5721C14.7212 14.9968 15.8399 13.6721 15.9492 11.2927C16.0186 9.82008 16.0146 6.17475 15.9492 4.70141C15.8172 1.89275 14.3099 0.189413 11.2986 0.0507461V0.0507461ZM13.6286 13.6321C12.6199 14.6408 11.2206 14.5508 7.98324 14.5508C4.64991 14.5508 3.31324 14.6001 2.33791 13.6221C1.21457 12.5041 1.41791 10.7088 1.41791 7.98675C1.41791 4.30341 1.03991 1.65075 4.73657 1.46141C5.58591 1.43141 5.83591 1.42141 7.97391 1.42141L8.00391 1.44141C11.5566 1.44141 14.3439 1.06941 14.5112 4.76541C14.5492 5.60875 14.5579 5.86208 14.5579 7.99675C14.5572 11.2914 14.6199 12.6361 13.6286 13.6321V13.6321Z"/>
        <path d="M12.2706 4.68918C12.8004 4.68918 13.2299 4.25967 13.2299 3.72984C13.2299 3.20002 12.8004 2.77051 12.2706 2.77051C11.7408 2.77051 11.3113 3.20002 11.3113 3.72984C11.3113 4.25967 11.7408 4.68918 12.2706 4.68918Z"/>
    </symbol>

    <symbol id="fb" viewBox="0 0 9 16">
        <path d="M6.66476 2.65667H8.12542V0.112667C7.87342 0.078 7.00676 0 5.99742 0C3.89142 0 2.44876 1.32467 2.44876 3.75933V6H0.124756V8.844H2.44876V16H5.29809V8.84467H7.52809L7.88209 6.00067H5.29742V4.04133C5.29809 3.21933 5.51942 2.65667 6.66476 2.65667V2.65667Z"/>
    </symbol>

    <symbol id="phone" viewBox="0 0 16 16">
        <path d="M7.99992 0C4.80476 0 2.20532 2.59944 2.20532 5.79456C2.20532 9.75981 7.39092 15.581 7.6117 15.8269C7.81907 16.0579 8.18114 16.0575 8.38814 15.8269C8.60892 15.581 13.7945 9.75981 13.7945 5.79456C13.7944 2.59944 11.195 0 7.99992 0ZM7.99992 8.70997C6.39235 8.70997 5.08454 7.40212 5.08454 5.79456C5.08454 4.187 6.39239 2.87919 7.99992 2.87919C9.60745 2.87919 10.9153 4.18703 10.9153 5.79459C10.9153 7.40216 9.60745 8.70997 7.99992 8.70997Z"/>
    </symbol>

</svg>