<svg width="30" height="30" viewBox="0 0 30 30" fill="none" xmlns="http://www.w3.org/2000/svg">
    <path d="M15 30C23.2843 30 30 23.2843 30 15C30 6.71573 23.2843 0 15 0C6.71573 0 0 6.71573 0 15C0 23.2843 6.71573 30 15 30Z" fill="#1C8ADB"/>
    <path d="M21.9083 8.05406L21.627 8.16188L6.36044 13.9759C6.25225 14.0113 6.15822 14.0836 6.09309 14.1815C6.02795 14.2794 5.9954 14.3974 6.00052 14.517C6.00565 14.6366 6.04817 14.751 6.12141 14.8423C6.19466 14.9335 6.29449 14.9966 6.40526 15.0214L10.3571 16.165L11.0943 18.452L11.8315 20.7391C11.8739 20.8512 11.9415 20.9507 12.0285 21.0289C12.1155 21.1072 12.2192 21.1618 12.3307 21.188C12.4422 21.2143 12.558 21.2113 12.6682 21.1795C12.7784 21.1477 12.8795 21.0879 12.9629 21.0054L15.0045 18.9666L19.0135 21.8402C19.5035 22.193 20.202 21.9316 20.3272 21.3501L22.9824 8.94928C23.1122 8.33504 22.5002 7.83025 21.9083 8.05406ZM19.9594 10.8067L13.0618 16.7661L12.7372 17.0471C12.6659 17.1069 12.6194 17.1936 12.6074 17.2889L12.5348 17.9227L12.3354 19.7034C12.337 19.7251 12.3305 19.7465 12.3171 19.7631C12.3038 19.7796 12.2848 19.7899 12.2643 19.7916C12.2438 19.7933 12.2235 19.7864 12.2078 19.7723C12.1922 19.7582 12.1825 19.7381 12.1808 19.7165L11.6198 17.9375L11.0402 16.116C11.0157 16.0341 11.019 15.9457 11.0495 15.8661C11.0799 15.7865 11.1357 15.7206 11.2072 15.6798L18.3845 11.3311L19.7353 10.5143C19.9316 10.3934 20.1325 10.6564 19.9594 10.8067Z" fill="white"/>
</svg>
