<svg width="22" height="22" viewBox="0 0 22 22" fill="none" xmlns="http://www.w3.org/2000/svg">
    <g clip-path="url(#clip0_40_634)">
        <path d="M10.9998 21.9998C17.0746 21.9998 21.9996 17.0744 21.9996 11C21.9996 4.92566 17.075 0.000244141 10.9998 0.000244141C4.92455 0.000244141 0 4.92566 0 11C0 17.0744 4.92541 21.9998 10.9998 21.9998Z" fill="#F0F0F0"/>
        <path fill-rule="evenodd" clip-rule="evenodd" d="M17.6972 2.27409C16.5577 1.39835 15.2574 0.754706 13.87 0.379639V6.10167L17.6972 2.27409ZM0.379395 8.13448C0.752707 6.74516 1.39649 5.44314 2.27385 4.30304L6.10143 8.13448H0.379395ZM19.7266 4.30304C20.6032 5.44361 21.2469 6.74547 21.621 8.13448H15.8981L19.7266 4.30304ZM0.379395 13.8724H6.10143L2.27428 17.6966C1.39863 16.558 0.754843 15.2588 0.379395 13.8724ZM4.30365 19.7268C5.44327 20.6024 6.74352 21.246 8.13081 21.6212V15.9014L4.30365 19.7268ZM4.30365 2.27409C5.44288 1.39788 6.74326 0.754193 8.13081 0.379639V6.10167L4.30365 2.27409ZM13.8692 21.6212C15.2567 21.2467 16.5571 20.603 17.6963 19.7268L13.8692 15.9027V21.6212ZM19.7253 17.6979L15.8981 13.8737H21.6197C21.245 15.2603 20.6013 16.5596 19.7253 17.6979Z" fill="#084DBC"/>
        <path fill-rule="evenodd" clip-rule="evenodd" d="M21.9069 9.56465H12.435V0.0923745C11.4823 -0.0296522 10.5179 -0.0296522 9.56522 0.0923745V9.56422H0.093376C-0.0307998 10.5177 -0.0307998 11.4832 0.093376 12.4366H9.56522V21.9085C10.5179 22.0305 11.4823 22.0305 12.435 21.9085V12.4366H21.9069C22.0311 11.4833 22.0311 10.5179 21.9069 9.56465ZM13.8719 13.8726L18.7771 18.7795L19.4238 18.0706L15.2215 13.8726H13.8702H13.8719ZM3.22273 18.7795L8.13095 13.8726V15.2231L3.92869 19.4275L3.22273 18.7795ZM8.13052 8.12823L3.22273 3.22302L2.57821 3.93199L6.78047 8.1364H8.13353L8.13052 8.12823ZM18.7771 3.22302L13.8702 8.12823V6.77775L18.0724 2.57334L18.7771 3.22302Z" fill="#D80027"/>
    </g>
    <defs>
        <clipPath id="clip0_40_634">
            <rect width="22" height="22" fill="white"/>
        </clipPath>
    </defs>
</svg>
