<svg width="30" height="30" viewBox="0 0 30 30" fill="none" xmlns="http://www.w3.org/2000/svg">
    <path d="M15 30C23.2843 30 30 23.2843 30 15C30 6.71573 23.2843 0 15 0C6.71573 0 0 6.71573 0 15C0 23.2843 6.71573 30 15 30Z" fill="#6F3FAA"/>
    <path d="M23.6643 10.1335V10.1114C23.4632 9.29659 22.9382 8.45454 22.2496 7.74545C21.445 6.91364 20.4206 6.2608 19.4422 6.04943H19.4217C16.5039 5.49035 13.5065 5.49035 10.5888 6.04943H10.5683C8.75126 6.44318 6.7791 8.34204 6.33933 10.1114V10.1335C5.799 12.5865 5.799 15.1277 6.33933 17.5807V17.6011C6.65296 18.8625 7.74387 20.1886 9.00183 20.9898C9.41265 21.2575 9.85984 21.4647 10.3297 21.6051V23.579C10.3303 23.7367 10.3779 23.8907 10.4664 24.0213C10.5549 24.1519 10.6803 24.2531 10.8266 24.3122C10.9729 24.3712 11.1334 24.3854 11.2878 24.3529C11.4421 24.3204 11.5833 24.2426 11.6933 24.1295L13.6944 22.05C14.1274 22.0739 14.5638 22.0875 14.9967 22.0875C16.4788 22.087 17.9575 21.9466 19.4132 21.6682H19.4336C21.2456 21.2727 23.2194 19.3739 23.6558 17.6045V17.5841C24.1994 15.1306 24.2023 12.5882 23.6643 10.1335ZM22.0808 17.2159C21.7876 18.3699 20.291 19.8068 19.0996 20.071C17.552 20.3675 15.977 20.4961 14.4018 20.4545C14.3865 20.4536 14.3711 20.4562 14.357 20.4621C14.3428 20.468 14.3301 20.4771 14.32 20.4886L12.8592 21.9886L11.3047 23.5824C11.2798 23.6087 11.2476 23.6269 11.2123 23.6347C11.1769 23.6424 11.1401 23.6394 11.1065 23.626C11.0729 23.6126 11.0441 23.5894 11.0238 23.5595C11.0035 23.5295 10.9927 23.4941 10.9927 23.4579V20.1852C10.9928 20.1589 10.9836 20.1334 10.9668 20.1132C10.95 20.0929 10.9266 20.0792 10.9007 20.0744C10.6522 20.0154 10.4126 19.9237 10.1882 19.8017C9.17569 19.2614 8.15467 18.1534 7.91944 17.2159C7.43221 14.9986 7.43221 12.702 7.91944 10.4847C8.21092 9.33579 9.71603 7.90227 10.899 7.63636C13.6079 7.11803 16.3906 7.11803 19.0996 7.63636C19.7558 7.78295 20.5058 8.28239 21.0922 8.89602C21.5746 9.39545 21.9444 9.97159 22.0808 10.4898C22.5673 12.7054 22.5673 15.0002 22.0808 17.2159Z" fill="white"/>
    <path d="M19.1423 17.3864C18.9208 17.8917 18.5401 18.3108 18.0582 18.5795C17.907 18.6437 17.75 18.6934 17.5894 18.7278C17.4071 18.6733 17.2332 18.6358 17.0781 18.5693C15.786 18.0665 14.5831 17.3592 13.5156 16.4744C13.1985 16.204 12.9006 15.9118 12.6241 15.6C11.9413 14.8137 11.3679 13.9387 10.9195 12.9989C10.7014 12.554 10.5173 12.0937 10.3298 11.6352C10.1593 11.2176 10.4116 10.783 10.6707 10.471C10.9243 10.1817 11.2362 9.94937 11.586 9.7892C11.7091 9.72734 11.85 9.71052 11.9842 9.74166C12.1183 9.77279 12.2374 9.84992 12.3207 9.95966C12.7562 10.449 13.14 10.9819 13.4661 11.55C13.5689 11.7152 13.604 11.9136 13.5644 12.104C13.5247 12.2945 13.4132 12.4623 13.2531 12.5727C13.1678 12.6324 13.0826 12.7006 13.0093 12.767C12.9371 12.8206 12.8748 12.8863 12.8252 12.9614C12.7825 13.0316 12.7566 13.1107 12.7495 13.1926C12.7424 13.2746 12.7543 13.357 12.7843 13.4335C13.1133 14.3386 13.6127 15.0937 14.3593 15.6239C14.612 15.8025 14.8842 15.9518 15.1707 16.0687C15.3578 16.1705 15.568 16.2222 15.7809 16.2187C16.1525 16.1744 16.2752 15.7636 16.5343 15.5523C16.6533 15.4549 16.8004 15.3985 16.954 15.3914C17.1075 15.3844 17.2592 15.427 17.3866 15.5131C17.6627 15.6835 17.9286 15.8761 18.1946 16.0636C18.4576 16.2431 18.7108 16.4366 18.9531 16.6432C19.0664 16.7255 19.1474 16.8449 19.1819 16.9806C19.2165 17.1163 19.2024 17.2599 19.1423 17.3864Z" fill="white"/>
    <path d="M15.4894 9.21818H15.2712C15.3411 9.21478 15.4144 9.21818 15.4894 9.21818Z" fill="white"/>
    <path d="M19.2615 14.3267C19.0911 14.3267 19.0076 14.1818 18.9956 14.0233C18.9735 13.7114 18.9564 13.3977 18.9138 13.0875C18.8401 12.5641 18.6578 12.0619 18.3786 11.6131C18.0916 11.1455 17.7096 10.7434 17.2575 10.4328C16.8053 10.1222 16.293 9.90986 15.7536 9.80966C15.5081 9.76534 15.2576 9.75511 15.0104 9.72954C14.8536 9.7125 14.6473 9.70227 14.6132 9.50795C14.6082 9.47021 14.6112 9.43182 14.6221 9.39534C14.633 9.35886 14.6516 9.32513 14.6766 9.29641C14.7016 9.26769 14.7325 9.24464 14.7671 9.2288C14.8018 9.21296 14.8394 9.20469 14.8774 9.20454C14.9183 9.20219 14.9593 9.20219 15.0002 9.20454C15.7452 9.21085 16.4772 9.40081 17.1314 9.7576C17.7855 10.1144 18.3415 10.627 18.7502 11.25C19.0728 11.7522 19.2919 12.3137 19.3945 12.9017C19.4593 13.2699 19.4831 13.6483 19.5121 14.0233C19.5179 14.06 19.5159 14.0976 19.5061 14.1335C19.4963 14.1694 19.4789 14.2028 19.4552 14.2315C19.4315 14.2602 19.402 14.2835 19.3686 14.2999C19.3352 14.3163 19.2987 14.3255 19.2615 14.3267Z" fill="white"/>
    <path d="M18.3394 13.5307C18.3384 13.5813 18.3315 13.6316 18.3189 13.6807C18.304 13.73 18.2743 13.7735 18.2338 13.8053C18.1933 13.8371 18.144 13.8556 18.0926 13.8584C18.0412 13.8612 17.9902 13.8481 17.9465 13.8209C17.9028 13.7936 17.8686 13.7536 17.8485 13.7063C17.8297 13.6374 17.8211 13.5662 17.8229 13.4949C17.8269 13.1136 17.7514 12.7357 17.6013 12.3852C17.5672 12.3102 17.5297 12.2335 17.4871 12.1602C17.2431 11.7397 16.8809 11.4 16.4456 11.1835C16.183 11.0595 15.904 10.9734 15.6172 10.9278C15.4911 10.9074 15.3649 10.8955 15.2388 10.8784C15.206 10.8768 15.1738 10.8684 15.1443 10.8538C15.1149 10.8393 15.0887 10.8188 15.0675 10.7937C15.0462 10.7686 15.0303 10.7395 15.0208 10.708C15.0113 10.6765 15.0083 10.6435 15.0121 10.6108C15.0121 10.5774 15.0192 10.5444 15.0329 10.5139C15.0465 10.4834 15.0665 10.4562 15.0915 10.434C15.1164 10.4118 15.1458 10.3951 15.1776 10.385C15.2095 10.3749 15.2431 10.3717 15.2763 10.3756C15.7768 10.3949 16.2671 10.5228 16.7132 10.7506C17.258 11.0247 17.7024 11.4637 17.9831 12.0051C18.1412 12.3212 18.2471 12.6608 18.2967 13.0108C18.3059 13.0564 18.3128 13.1025 18.3172 13.1489C18.3257 13.2511 18.3291 13.3534 18.3377 13.4795C18.3377 13.4915 18.3394 13.5068 18.3394 13.5307Z" fill="white"/>
    <path d="M17.1718 13.2955C17.1622 13.3387 17.1398 13.378 17.1076 13.4084C17.0754 13.4388 17.0348 13.4588 16.9911 13.4659H16.9536C16.8978 13.4695 16.8423 13.4548 16.7955 13.4241C16.7488 13.3933 16.7133 13.3482 16.6945 13.2955C16.6839 13.2675 16.6771 13.2383 16.6741 13.2085C16.6651 13.0938 16.648 12.9799 16.6229 12.8676C16.5723 12.6403 16.4431 12.4381 16.2582 12.2966C16.1688 12.2324 16.069 12.184 15.9633 12.1534C15.8286 12.1142 15.6872 12.1244 15.5542 12.092C15.4885 12.0804 15.4301 12.0432 15.3917 11.9886C15.3534 11.9339 15.3383 11.8663 15.3497 11.8006C15.3623 11.7376 15.3975 11.6814 15.4487 11.6425C15.4998 11.6036 15.5634 11.5846 15.6275 11.5892C16.4082 11.6455 16.9911 12.0205 17.1411 12.8574C17.1566 12.9351 17.1674 13.0136 17.1735 13.0926C17.1831 13.1599 17.1825 13.2283 17.1718 13.2955Z" fill="white"/>
</svg>
