<svg width="30" height="30" viewBox="0 0 30 30" fill="none" xmlns="http://www.w3.org/2000/svg">
    <circle cx="15" cy="15" r="15" fill="#33CCFF"/>
    <path d="M15.6875 21.4375C19.9506 21.4375 23.4062 18.2479 23.4062 14.3125C23.4062 10.3771 19.9506 7.1875 15.6875 7.1875C11.4244 7.1875 7.96875 10.3771 7.96875 14.3125C7.96875 14.3125 8.52569 17.875 5.59375 17.875C5.59375 20.8438 10.9375 21.4375 15.6875 21.4375Z" fill="white"/>
    <path d="M15.6875 22.0312C8.496 22.0312 5 20.6716 5 17.875C5 17.5472 5.266 17.2812 5.59375 17.2812C6.18275 17.2812 6.61263 17.1126 6.90831 16.7682C7.60181 15.9572 7.3845 14.4194 7.38213 14.4039C7.375 10.0565 11.1038 6.59375 15.6875 6.59375C20.2701 6.59375 24 10.0565 24 14.3125C24 18.5685 20.2701 22.0312 15.6875 22.0312ZM6.27775 18.407C6.843 20.0042 10.0683 20.8438 15.6875 20.8438C19.6169 20.8438 22.8125 17.913 22.8125 14.3125C22.8125 10.7108 19.6169 7.78125 15.6875 7.78125C11.7581 7.78125 8.5625 10.7108 8.5625 14.3125C8.56962 14.3125 8.86531 16.3087 7.81081 17.5401C7.41775 17.9985 6.90475 18.2894 6.27775 18.407Z" fill="#292929"/>
    <path d="M18.0625 24.4062C19.3742 24.4062 20.4375 23.3429 20.4375 22.0312C20.4375 20.7196 19.3742 19.6562 18.0625 19.6562C16.7508 19.6562 15.6875 20.7196 15.6875 22.0312C15.6875 23.3429 16.7508 24.4062 18.0625 24.4062Z" fill="#292929"/>
    <path d="M10.9375 24.4062C12.2492 24.4062 13.3125 23.3429 13.3125 22.0312C13.3125 20.7196 12.2492 19.6562 10.9375 19.6562C9.62582 19.6562 8.5625 20.7196 8.5625 22.0312C8.5625 23.3429 9.62582 24.4062 10.9375 24.4062Z" fill="#292929"/>
    <path d="M13.3365 13.125C13.0088 13.125 12.7368 12.859 12.7368 12.5312C12.7368 12.2035 12.9969 11.9375 13.3246 11.9375H13.3365C13.6643 11.9375 13.9303 12.2035 13.9303 12.5312C13.9303 12.859 13.6643 13.125 13.3365 13.125Z" fill="#292929"/>
    <path d="M18.0865 13.125C17.7599 13.125 17.4868 12.859 17.4868 12.5312C17.4868 12.2035 17.7469 11.9375 18.0746 11.9375H18.0865C18.4143 11.9375 18.6803 12.2035 18.6803 12.5312C18.6803 12.859 18.4143 13.125 18.0865 13.125Z" fill="#292929"/>
    <path d="M15.6876 18.4687C13.9752 18.4687 12.5158 17.3026 12.1394 15.6306C12.0681 15.31 12.2688 14.9929 12.5882 14.9205C12.9089 14.8516 13.2259 15.0487 13.2984 15.3694C13.5513 16.4951 14.5346 17.2812 15.6876 17.2812C16.8419 17.2812 17.8239 16.4951 18.0769 15.3694C18.1505 15.0499 18.464 14.8492 18.787 14.9205C19.1076 14.9929 19.3083 15.31 19.2371 15.6306C18.8606 17.3014 17.4012 18.4687 15.6876 18.4687Z" fill="#292929"/>
</svg>
