<svg width="30" height="30" viewBox="0 0 30 30" fill="none" xmlns="http://www.w3.org/2000/svg">
    <path d="M15 30C23.2843 30 30 23.2843 30 15C30 6.71573 23.2843 0 15 0C6.71573 0 0 6.71573 0 15C0 23.2843 6.71573 30 15 30Z" fill="#29A71A"/>
    <path d="M21.6137 8.38637C20.0531 6.81017 17.9806 5.84354 15.7701 5.66083C13.5595 5.47813 11.3564 6.09137 9.55819 7.38996C7.75996 8.68854 6.48496 10.587 5.96319 12.7428C5.44141 14.8987 5.70719 17.17 6.7126 19.1472L5.72567 23.9387C5.71543 23.9863 5.71514 24.0356 5.72481 24.0834C5.73449 24.1312 5.75393 24.1765 5.78192 24.2165C5.82291 24.2771 5.88143 24.3238 5.94965 24.3503C6.01788 24.3768 6.09256 24.3819 6.16373 24.3648L10.8598 23.2517C12.8313 24.2317 15.0867 24.4804 17.2244 23.9536C19.3621 23.4267 21.2436 22.1586 22.5341 20.3747C23.8246 18.5909 24.4404 16.407 24.2718 14.2118C24.1033 12.0166 23.1614 9.95232 21.6137 8.38637ZM20.1495 20.0727C19.0697 21.1495 17.6793 21.8603 16.1741 22.1049C14.669 22.3496 13.125 22.1157 11.7598 21.4364L11.1052 21.1125L8.22624 21.7943L8.23476 21.7585L8.83135 18.8608L8.5109 18.2284C7.81333 16.8584 7.56725 15.3028 7.80792 13.7844C8.04858 12.266 8.76365 10.8627 9.85067 9.77557C11.2165 8.41013 13.0688 7.64307 15.0001 7.64307C16.9314 7.64307 18.7837 8.41013 20.1495 9.77557C20.1612 9.78891 20.1737 9.80144 20.187 9.81307C21.536 11.182 22.289 13.0288 22.282 14.9506C22.275 16.8725 21.5084 18.7137 20.1495 20.0727Z" fill="white"/>
    <path d="M19.8939 17.9471C19.5411 18.5028 18.9837 19.1829 18.2831 19.3517C17.0559 19.6483 15.1724 19.3619 12.8286 17.1767L12.7996 17.1511C10.7388 15.2403 10.2036 13.65 10.3331 12.3886C10.4047 11.6727 11.0013 11.025 11.5042 10.6023C11.5837 10.5344 11.6779 10.4861 11.7794 10.4612C11.8809 10.4363 11.9869 10.4355 12.0887 10.4589C12.1906 10.4822 12.2856 10.5291 12.3661 10.5957C12.4467 10.6624 12.5105 10.7469 12.5525 10.8426L13.311 12.5472C13.3603 12.6577 13.3785 12.7795 13.3638 12.8997C13.3491 13.0198 13.302 13.1336 13.2275 13.229L12.8439 13.7267C12.7616 13.8295 12.712 13.9545 12.7014 14.0857C12.6907 14.217 12.7196 14.3484 12.7843 14.4631C12.9991 14.8398 13.5138 15.3937 14.0848 15.9068C14.7258 16.4864 15.4366 17.0165 15.8866 17.1971C16.007 17.2463 16.1394 17.2583 16.2666 17.2316C16.3939 17.2049 16.5103 17.1406 16.6008 17.0471L17.0456 16.5989C17.1315 16.5142 17.2382 16.4538 17.355 16.4239C17.4718 16.3939 17.5944 16.3955 17.7104 16.4284L19.5121 16.9398C19.6115 16.9702 19.7026 17.0231 19.7785 17.0942C19.8543 17.1652 19.9129 17.2527 19.9497 17.35C19.9866 17.4472 20.0007 17.5515 19.991 17.655C19.9814 17.7585 19.9482 17.8584 19.8939 17.9471Z" fill="white"/>
</svg>
